<?xml version="1.0" encoding="utf-8"?>
<?xml-stylesheet type="text/xsl" href="rss1.xsl"?>
<rss version="2.0" xmlns:atom="http://www.w3.org/2005/Atom" xmlns:content="http://purl.org/rss/1.0/modules/content/" xmlns:dc="http://purl.org/dc/elements/1.1/" xmlns:media="http://search.yahoo.com/mrss/">
<channel>
 <title>Getty</title>
 <link>http://www.gettyimg.com/</link>
 <atom:link href="http://www.gettyimg.com/" rel="self" type="application/rss+xml" />

 
                <item>
                <title><![CDATA[【BLU-RAY &amp; BD RIP】5 Seconds Of Summer - Don't Stop (2014) (BlueRay - 1080P)]]></title>
                <link><![CDATA[https://sharemania.us/threads/5-seconds-of-summer-dont-stop-2014-blueray-1080p.238808/]]></link>
                <description><![CDATA[<article>
<blockquote class="messageText SelectQuoteContainer ugc baseHtml">
<img src="https://i.imgur.com/ccKk8Nr.jpeg" class="bbCodeImage LbImage" alt="[​IMG]" data-url="https://i.imgur.com/ccKk8Nr.jpeg" style=""> <br>
<b>5 Seconds Of Summer - Don't Stop (1080P) (BD)<br>
<div class="ToggleTriggerAnchor bbCodeSpoilerContainer">
<button type="button" class="button bbCodeSpoilerButton ToggleTrigger Tooltip JsOnly" data-target="> .SpoilerTarget"><span>Spoiler: <span class="SpoilerTitle">Media Info</span></span></button>
<div class="SpoilerTarget bbCodeSpoilerText">General<br>
ID : 0 (0x0)<br>
Complete name : Don't Stop (BD).m2ts<br>
Format : BDAV<br>
Format/Info : Blu-ray Video<br>
File size : 745 MiB<br>
Duration : 3 min 40 s<br>
Overall bit rate mode : Variable<br>
Overall bit rate : 28.3 Mb/s<br>
Maximum Overall bit rate : 48.0 Mb/s<br>
<br>
Video<br>
ID : 4113 (0x1011)<br>
Menu ID : 1 (0x1)<br>
Format : AVC<br>
Format/Info : Advanced Video Codec<br>
Format profile : High@L4.1<br>
Format settings, CABAC : Yes<br>
Format settings, RefFrames : 4 frames<br>
Format settings, GOP : M=3, N=24<br>
Codec ID : 27<br>
Duration : 3 min 40 s<br>
Bit rate mode : Variable<br>
Bit rate : 25.7 Mb/s<br>
Maximum bit rate : 39.0 Mb/s<br>
Width : 1 920 pixels<br>
Height : 1 080 pixels<br>
Display aspect ratio : 16:9<br>
Frame rate : 23.976 (24000/1001) FPS<br>
Standard : NTSC<br>
Color space : YUV<br>
Chroma subsampling : 4:2:0<br>
Bit depth : 8 bits<br>
Scan type : Progressive<br>
Bits/(Pixel*Frame) : 0.516<br>
Stream size : 675 MiB (91%)<br>
Color range : Limited<br>
Color primaries : BT.709<br>
Transfer characteristics : BT.709<br>
Matrix coefficients : BT.709<br>
<br>
Audio<br>
ID : 4352 (0x1100)<br>
Menu ID : 1 (0x1)<br>
Format : PCM<br>
Format settings, Endianness : Big<br>
Format settings, Sign : Signed<br>
Muxing mode : Blu-ray<br>
Codec ID : 128<br>
Duration : 3 min 40 s<br>
Bit rate mode : Constant<br>
Bit rate : 1 536 kb/s<br>
Channel(s) : 2 channels<br>
Channel positions : Front: L R<br>
Sampling rate : 48.0 kHz<br>
Bit depth : 16 bits<br>
Stream size : 40.4 MiB (5%)</div>
</div><br>
For </b><span style="font-size: 15px"><b><b>5 Seconds Of Summer - Don't Stop (Xtendz - 1080 (Clean) [Extended]) (VjPro/Smashvision Pool)</b></b></span><b><b> <span style="font-size: 18px">link </span></b></b><br>
<span style="font-size: 18px"><a href="https://sharemania.us/threads/5-seconds-of-summer-dont-stop-xtendz-1080-clean-extended-vjpro-smashvision-pool.227469/" class="internalLink">https://sharemania.us/threads/5-sec...clean-extended-vjpro-smashvision-pool.227469/</a></span><br>
<br>
<b>[/URL]
<div class="bbCodeBlock bbCodeVfcHH HiddenContent">
<div class="attribution type">Hidden Content:</div>
<blockquote>You must reply before you can see the hidden data contained here.</blockquote>
</div></b>
<div class="messageTextEndMarker">&nbsp;</div>
</blockquote>
</article>]]></description>
                <author><![CDATA[gamerfronts]]></author>
                </item>

                
                <item>
                <title><![CDATA[【Requests】[REQ AUD] - [REQ AUD] Cordae - From a Birds Eye View (Explicit) [FLAC]]]></title>
                <link><![CDATA[https://sharemania.us/threads/req-aud-cordae-from-a-birds-eye-view-explicit-flac.238809/]]></link>
                <description><![CDATA[<article>
<blockquote class="messageText SelectQuoteContainer ugc baseHtml">
I'm requesting "From a Birds Eye View (Explicit)" as FLAC/Highest quality possible. Thanks !
<div class="messageTextEndMarker">&nbsp;</div>
</blockquote>
</article>]]></description>
                <author><![CDATA[Reinx]]></author>
                </item>

                
                <item>
                <title><![CDATA[【Albums (lossless)】FLAC - MINISTRY - 2024 - HOPIUMFORTHEMASSES [24bit-44.1kHz]]]></title>
                <link><![CDATA[https://sharemania.us/threads/ministry-2024-hopiumforthemasses-24bit-44-1khz.238810/]]></link>
                <description><![CDATA[<article>
<blockquote class="messageText SelectQuoteContainer ugc baseHtml">
<div style="text-align: center"><img src="https://static.qobuz.com/images/covers/3b/4s/clanbj3by4s3b_600.jpg" class="bbCodeImage LbImage" alt="[​IMG]" data-url="https://static.qobuz.com/images/covers/3b/4s/clanbj3by4s3b_600.jpg" style=""> <br>
<br>
<b>Band</b>: Ministry<br>
<b>Album</b>: <a href="https://filedot.to/wvrun90qc933" target="_blank" class="externalLink" rel="nofollow"><span style="color: #000000">OPIUMFORTHEMASSES </span></a><br>
<b>Date</b>: 01 March 2024<br>
<b>Genre</b>: Industrial/Metal<br>
<b>Quality</b>: <a href="https://filedot.to/wvrun90qc933" target="_blank" class="externalLink" rel="nofollow"><span style="color: #000000">24bit-44.1kHz</span></a><br>
<b>Country</b>: USA<br>
<b>Size</b>: 308,3MB<br>
<br>
<b>Tracklist</b>:<br>
<br>
1-B.D.E. 04:27<br>
2-Goddamn White Trash 04:43<br>
3-Just Stop Oil 03:59<br>
4-Aryan Embarrassment 05:58<br>
5-TV Song 1/6 Edition 03:18<br>
6-New Religion 05:05<br>
7-It's Not Pretty 05:05<br>
8-Cult of Suffering 06:12<br>
9-Ricky's Hand 03:41<br>
<br>
<span style="font-size: 18px"><span style="color: #336600"><b>Filedot</b></span></span>:<br>
<br>
<div class="bbCodeBlock bbCodeVfcHH HiddenContent">
<div class="attribution type">Hidden Content:</div>
<blockquote>You must either reply or click 'Like' to see the hidden information contained here.</blockquote>
</div></div>
<div class="messageTextEndMarker">&nbsp;</div>
</blockquote>
</article>]]></description>
                <author><![CDATA[XRB80]]></author>
                </item>

                </channel></rss>